:SAMPLES-PER-SECOND 30
:FRAME-RANGE 1-2091
:FULLY-SPECIFIED
:DEGREES
131
root  -58.0221 39.3683 -55.7283 -4.04095 -36.3064 1.60699
RightUpLeg  -20.5314 -8.18072 -4.3358
RightLeg  38.602 -4.71947 -4.2904
RightFoot  -1.31891 -1.22427 13.797
RightToes  5.82063e-011 0 -3.6325e-017
Spine  6.34633 0.141145 -4.09308
Spine1  0.919546 0.173949 -2.65963
HEad  5.21239 34.7961 -5.17752
LeftShoulder1  1.44869 -0.178931 -33.2807
LeftArm  8.57982 15.3393 -30.3271
LeftForeArm  6.34571 0.389268 -18.6908
LeftHand  0.355591 0.0982032 -7.87267
RightShoulder  6.59985 7.75044 51.3605
RightArm  16.502 -2.58611 14.0492
RightForeArm  18.7235 -3.34153 18.156
RightHand  0.247256 3.03452 3.18028
LeftUpLeg  2.00815 9.51349 -0.987984
LeftLeg  13.0179 0.813095 -4.62343
LeftFoot  -13.5818 0.00891486 -3.70554
LeftToes  -6.27584e-011 -2.25241e-010 2.80627e-011
132
root  -58.5292 39.3679 -54.8237 -3.52251 -34.607 1.16949
RightUpLeg  -19.7914 -7.4352 -4.13969
RightLeg  26.9568 -6.2754 -3.67439
RightFoot  -0.85116 -1.39328 15.0337
RightToes  5.82063e-011 0 -3.6325e-017
Spine  5.95628 -0.286641 -3.92271
Spine1  0.952058 -0.208211 -2.16751
HEad  5.16637 35.4015 -5.45236
LeftShoulder1  1.44231 -0.174645 -33.1539
LeftArm  8.36024 13.5905 -29.9849
LeftForeArm  6.71308 0.16166 -18.6057
LeftHand  0.330622 0.128273 -7.36866
RightShoulder  5.81777 6.50252 50.9359
RightArm  17.7892 -4.5461 13.2389
RightForeArm  18.319 -3.08073 18.2454
RightHand  0.281525 3.27345 3.53323
LeftUpLeg  4.00374 9.55349 -0.491973
LeftLeg  11.9526 -1.2578 -4.86605
LeftFoot  -14.5156 -0.0137731 -3.63562
LeftToes  -6.27584e-011 -2.25241e-010 2.80627e-011
133
root  -59.0532 39.3735 -53.9414 -2.87752 -33.1074 1.03069
RightUpLeg  -18.5547 -7.24905 -4.20631
RightLeg  14.0527 -7.63304 -2.34346
RightFoot  0.686704 -1.51091 14.3176
RightToes  5.82063e-011 0 -3.6325e-017
Spine  5.50052 -0.553821 -3.67672
Spine1  0.739798 -0.403603 -1.76141
HEad  5.10489 35.9021 -5.47423
LeftShoulder1  1.42274 -0.136129 -33.0314
LeftArm  13.773 10.9607 -29.6446
LeftForeArm  2.00397 -1.60479 -18.8679
LeftHand  0.304236 0.0972811 -6.73929
RightShoulder  5.10624 5.36322 50.4662
RightArm  16.4991 -6.2495 12.7279
RightForeArm  20.045 -3.49105 18.0491
RightHand  0.327078 3.54192 3.99847
LeftUpLeg  5.90028 9.33651 -0.248903
LeftLeg  10.2907 -2.91429 -4.89936
LeftFoot  -14.9501 -0.0240841 -3.60758
LeftToes  -6.27584e-011 -2.25241e-010 2.80627e-011
134
root  -59.6 39.3105 -53.0601 -2.64368 -31.7329 1.10259
RightUpLeg  -16.8081 -4.51556 -5.36736
RightLeg  2.48942 -10.3917 -0.0737701
RightFoot  2.23955 -1.43773 12.1613
RightToes  5.82063e-011 0 -3.6325e-017
Spine  5.33341 -0.68718 -3.19691
Spine1  0.640515 -0.460776 -1.67742
HEad  4.94283 36.1824 -5.59411
LeftShoulder1  1.41143 -0.110815 -32.9921
LeftArm  12.7062 8.15702 -29.2544
LeftForeArm  3.01407 -1.94209 -18.6474
LeftHand  0.312592 -0.272191 -6.42287
RightShoulder  4.65721 4.65861 50.0137
RightArm  15.5919 -7.64951 12.3666
RightForeArm  21.1301 -3.69917 17.9328
RightHand  0.355451 3.70146 4.27835
LeftUpLeg  8.01119 9.24371 -0.00809088
LeftLeg  8.90709 -4.33093 -4.91767
LeftFoot  -15.699 -0.0467587 -3.70077
LeftToes  -6.27584e-011 -2.25241e-010 2.80627e-011
135
root  -60.2815 39.0189 -52.1036 -3.21875 -30.4083 1.78025
RightUpLeg  -17.7913 -5.32682 -6.06998
RightLeg  -0.11919 -7.34575 1.05447
RightFoot  0.481291 -1.42604 13.7439
RightToes  5.82063e-011 0 -3.6325e-017
Spine  5.54877 -0.689145 -3.48583
Spine1  0.19943 -0.366616 -2.02518
HEad  4.48086 36.5893 -6.17379
LeftShoulder1  1.40611 -0.0803385 -33.2021
LeftArm  12.6264 5.21934 -28.8288
LeftForeArm  3.10412 -3.07179 -18.3084
LeftHand  0.316102 -0.474746 -6.24537
RightShoulder  4.33585 4.16131 49.5928
RightArm  16.7209 -8.85285 11.9993
RightForeArm  19.442 -3.35276 18.1181
RightHand  0.403264 4.22974 4.58272
LeftUpLeg  9.85596 9.48426 0.0898513
LeftLeg  9.97209 -6.06601 -5.21138
LeftFoot  -17.9046 -0.11658 -3.90355
LeftToes  -6.27584e-011 -2.25241e-010 2.80627e-011
136
root  -60.994 38.7484 -51.1448 -3.74325 -29.2788 1.88111
RightUpLeg  -17.745 -5.23697 -5.90424
RightLeg  -0.693232 -5.5856 1.16788
RightFoot  -0.339441 -1.47891 15.249
RightToes  5.82063e-011 0 -3.6325e-017
Spine  6.01308 -0.607254 -3.06008
Spine1  0.134199 -0.249266 -2.25827
HEad  3.99629 37.017 -6.81959
LeftShoulder1  1.4039 -0.0869051 -33.328
LeftArm  11.053 2.41364 -28.7452
LeftForeArm  4.49106 -4.06824 -17.7885
LeftHand  0.316088 -0.655332 -6.03675
RightShoulder  4.38991 4.26145 49.5624
RightArm  15.214 -9.13406 11.5692
RightForeArm  20.8106 -3.60568 17.9775
RightHand  0.412477 3.89181 4.88865
LeftUpLeg  12.0425 9.76304 0.888049
LeftLeg  10.9601 -7.94532 -5.42961
LeftFoot  -20.062 -0.194083 -4.1214
LeftToes  -6.27584e-011 -2.25241e-010 2.80627e-011
